<svg width="20" height="25" viewBox="0 0 20 25" fill="none" xmlns="http://www.w3.org/2000/svg">
<path d="M10 15.5C12.2133 15.5 14 13.825 14 11.75V4.25C14 2.175 12.2133 0.5 10 0.5C7.78667 0.5 6 2.175 6 4.25V11.75C6 13.825 7.78667 15.5 10 15.5Z" fill="#3B8DBD"/>
<path d="M16.6667 11.75C16.6667 15.2 13.68 18 10 18C6.32 18 3.33333 15.2 3.33333 11.75H0.666666C0.666666 16.1625 4.14667 19.7875 8.66667 20.4V24.25H11.3333V20.4C15.8533 19.7875 19.3333 16.1625 19.3333 11.75H16.6667Z" fill="#3B8DBD"/>
</svg>
